<svg width="94" height="94" viewBox="0 0 94 94" fill="none" xmlns="http://www.w3.org/2000/svg">
<g id="Vector" filter="url(#filter0_d_2364_2109)">
<path fill-rule="evenodd" clip-rule="evenodd" d="M17.7644 76.5859L17.7643 59.2855L35.0647 59.2856L35.0648 76.586L17.7644 76.5859ZM16.0344 81.776C14.1233 81.7763 12.574 80.227 12.5743 78.3159L12.5741 57.5554C12.5739 55.6443 14.1231 54.0951 16.0342 54.0954L36.7949 54.0953C38.7058 54.0953 40.255 55.6445 40.255 57.5554L40.2549 78.3161C40.2552 80.2272 38.706 81.7764 36.7949 81.7762L16.0344 81.776ZM17.7643 35.0647L17.7642 17.7643L35.0649 17.7641L35.065 35.0651L17.7643 35.0647ZM16.0346 40.255C14.1232 40.255 12.5742 38.706 12.5742 36.7947L12.5741 16.0342C12.5741 14.1234 14.1233 12.5741 16.0341 12.5741L36.7949 12.574C38.706 12.5743 40.255 14.1233 40.2552 16.0344L40.2551 36.7951C40.2551 38.706 38.7059 40.2552 36.7951 40.2552L16.0346 40.255ZM59.2856 76.5859L59.2852 59.2853L76.5861 59.2854L76.586 76.5861L59.2856 76.5859ZM57.5556 81.7761C55.6443 81.776 54.0953 80.227 54.0952 78.3157L54.0951 57.5552C54.0951 55.6444 55.6443 54.0952 57.5552 54.0952L78.3159 54.0951C80.227 54.0953 81.776 55.6443 81.7762 57.5554L81.7761 78.3161C81.7761 80.227 80.2269 81.7762 78.3161 81.7762L57.5556 81.7761ZM59.2856 35.0647L59.2854 17.7643L76.5861 17.7642L76.586 35.0649L59.2856 35.0647ZM57.5556 40.2548C55.6445 40.2551 54.0952 38.7058 54.0955 36.7947L54.0953 16.0342C54.0951 14.1232 55.6443 12.5739 57.5554 12.5742L78.3161 12.5741C80.2269 12.5741 81.7762 14.1233 81.7762 16.0342L81.7761 36.7949C81.7764 38.706 80.2271 40.2552 78.316 40.255L57.5556 40.2548Z" fill="url(#paint0_linear_2364_2109)"/>
<path d="M36.7949 54.0953L36.7949 53.0953C39.2581 53.0953 41.255 55.0922 41.255 57.5554L40.255 57.5554L41.255 57.5554L41.2549 78.316C41.2549 78.316 41.2549 78.3161 41.2549 78.3161C41.2552 80.7795 39.2582 82.7764 36.7949 82.7762L36.7949 54.0953ZM36.7949 54.0953L36.7949 53.0953L16.0343 53.0954C13.5709 53.095 11.5739 55.092 11.5741 57.5554C11.5741 57.5555 11.5741 57.5555 11.5741 57.5556L11.5743 78.3158L36.7949 54.0953ZM78.3161 11.5741L78.3161 11.5741C80.7792 11.5741 82.7762 13.5711 82.7762 16.0342L82.7762 16.0342L82.7761 36.7948C82.7761 36.7948 82.7761 36.7949 82.7761 36.7949C82.7764 39.2583 80.7794 41.2552 78.316 41.255H78.3159M78.3161 11.5741L78.316 40.255L78.3159 41.255M78.3161 11.5741L57.5555 11.5742C55.092 11.5739 53.095 13.5709 53.0953 16.0344L53.0955 36.7946C53.0955 36.7947 53.0955 36.7947 53.0955 36.7947C53.0952 39.2581 55.0922 41.2551 57.5556 41.2548M78.3161 11.5741L57.5556 41.2548M78.3159 41.255L57.5557 41.2548M78.3159 41.255L57.5557 41.2548M57.5557 41.2548C57.5556 41.2548 57.5556 41.2548 57.5556 41.2548M57.5557 41.2548L57.5556 41.2548M16.0345 82.776L36.7947 82.7762L11.5743 78.3159C11.574 80.7793 13.571 82.7763 16.0344 82.776C16.0344 82.776 16.0345 82.776 16.0345 82.776ZM36.795 11.574H36.7949L16.0341 11.5741C16.0341 11.5741 16.0341 11.5741 16.0341 11.5741C13.571 11.5741 11.5741 13.5711 11.5741 16.0342L11.5742 36.7947C11.5742 39.2583 13.5709 41.255 16.0346 41.255L36.7951 41.2552C39.2582 41.2552 41.2551 39.2583 41.2551 36.7951L41.2552 16.0344V16.0343C41.2549 13.571 39.2583 11.5744 36.795 11.574ZM78.316 53.0951H78.3159L57.5552 53.0952C55.092 53.0951 53.0951 55.0921 53.0951 57.5552L53.0952 78.3157C53.0953 80.7793 55.092 82.776 57.5556 82.7761L78.3161 82.7762C80.7792 82.7762 82.7761 80.7793 82.7761 78.3161L82.7762 57.5554V57.5553C82.7759 55.092 80.7793 53.0954 78.316 53.0951ZM18.7644 75.5859L18.7643 60.2855L34.0647 60.2856L34.0648 75.586L18.7644 75.5859ZM18.7643 34.0647L18.7642 18.7643L34.0649 18.7642L34.065 34.065L18.7643 34.0647ZM60.2856 75.586L60.2853 60.2853L75.5861 60.2854L75.586 75.5861L60.2856 75.586ZM60.2856 34.0647L60.2854 18.7643L75.5861 18.7642L75.586 34.0648L60.2856 34.0647Z" stroke="url(#paint1_linear_2364_2109)" stroke-width="2"/>
</g>
<defs>
<filter id="filter0_d_2364_2109" x="0.574066" y="0.574097" width="93.2022" height="93.2021" filterUnits="userSpaceOnUse" color-interpolation-filters="sRGB">
<feFlood flood-opacity="0" result="BackgroundImageFix"/>
<feColorMatrix in="SourceAlpha" type="matrix" values="0 0 0 0 0 0 0 0 0 0 0 0 0 0 0 0 0 0 127 0" result="hardAlpha"/>
<feOffset/>
<feGaussianBlur stdDeviation="5"/>
<feComposite in2="hardAlpha" operator="out"/>
<feColorMatrix type="matrix" values="0 0 0 0 0 0 0 0 0 0 0 0 0 0 0 0 0 0 1 0"/>
<feBlend mode="normal" in2="BackgroundImageFix" result="effect1_dropShadow_2364_2109"/>
<feBlend mode="normal" in="SourceGraphic" in2="effect1_dropShadow_2364_2109" result="shape"/>
</filter>
<linearGradient id="paint0_linear_2364_2109" x1="6" y1="-3" x2="66.5" y2="92.5" gradientUnits="userSpaceOnUse">
<stop offset="0.325" stop-color="#F82B4E"/>
<stop offset="1" stop-color="#340A11"/>
</linearGradient>
<linearGradient id="paint1_linear_2364_2109" x1="42" y1="18" x2="82.5" y2="80" gradientUnits="userSpaceOnUse">
<stop stop-color="#F82B4E"/>
<stop offset="1" stop-color="#340A11"/>
</linearGradient>
</defs>
</svg>
